<svg width="793" height="839" viewBox="0 0 793 839" fill="none" xmlns="http://www.w3.org/2000/svg">
<path fill-rule="evenodd" clip-rule="evenodd" d="M104.672 0.299498L107.801 0.29206C111.248 0.285323 114.696 0.287017 118.143 0.288718C120.645 0.285628 123.147 0.282027 125.649 0.277953C132.514 0.268325 139.38 0.266166 146.246 0.265281C152.725 0.263343 159.205 0.256194 165.685 0.249045L168.472 0.245986C185.512 0.228919 202.552 0.221946 219.592 0.21646C228.019 0.213668 236.446 0.209357 244.873 0.204871C273.74 0.189528 302.607 0.176711 331.474 0.172584L356.012 0.168998C385.275 0.164657 414.539 0.145621 443.802 0.117751C474.768 0.0883016 505.733 0.0719289 536.698 0.0705022L549.444 0.0695409C562.897 0.0681676 576.349 0.0550145 589.801 0.0375966C603.335 0.0203694 616.869 0.0168676 630.403 0.0261602C637.728 0.0308217 645.053 0.0297612 652.378 0.0129384C659.094 -0.00234326 665.81 -0.000817381 672.526 0.013648C674.945 0.0159749 677.364 0.0123433 679.784 0.0018758C713.283 -0.133866 740.34 7.07177 765.187 30.0517C779.963 45.3558 791.926 67.0997 791.811 88.4761L791.824 91.5408C791.835 94.9189 791.829 98.2969 791.824 101.675V101.711C791.828 104.166 791.834 106.621 791.84 109.076C791.855 115.823 791.855 122.57 791.852 129.317C791.851 135.745 791.862 142.172 791.872 148.599L791.876 151.148C791.896 165.406 791.903 179.665 791.904 193.924C791.906 205.517 791.911 217.11 791.918 228.703L791.926 241.233C791.941 264.579 791.951 287.925 791.95 311.271L791.949 335.38C791.947 363.237 791.965 391.093 791.999 418.95C792.036 450.259 792.057 481.568 792.054 512.877L792.054 525.395C792.054 538.612 792.069 551.829 792.09 565.046C792.111 578.342 792.113 591.639 792.097 604.935C792.089 612.133 792.089 619.33 792.11 626.528C792.129 633.126 792.126 639.724 792.105 646.322C792.101 648.7 792.105 651.078 792.119 653.456C792.15 659.33 792.013 665.114 791.499 670.803V674.864L791.096 674.599C789.849 684.752 787.23 694.591 782.021 704.086L780.748 706.487C777.288 712.847 773.38 718.538 768.448 723.89L766.088 726.548C750.947 742.6 728.846 753.263 706.677 755.306C703.068 755.416 699.475 755.425 695.864 755.387L691.77 755.389C687.358 755.386 682.947 755.359 678.536 755.33C675.456 755.324 672.376 755.319 669.296 755.315C662.052 755.303 654.808 755.275 647.564 755.238C639.308 755.198 631.051 755.179 622.795 755.161C605.831 755.123 588.868 755.06 571.905 754.98L570.935 751.584L568.367 742.64C566.444 736.206 564.192 729.903 561.896 723.591C561.027 721.195 560.161 718.797 559.299 716.398L558.16 713.267C557.732 711.937 557.529 711.306 557.433 710.659C557.346 710.076 557.346 709.479 557.346 708.345L559.367 708.337C575.664 708.266 591.96 708.175 608.256 708.064C616.136 708.01 624.017 707.963 631.898 707.931C639.513 707.9 647.128 707.852 654.743 707.792C657.638 707.772 660.534 707.758 663.43 707.75C682.888 707.695 699.539 707.242 715.003 697.877C715.528 697.343 716.17 696.774 716.961 696.089L719.919 693.996L720.126 694.406C721.763 693.174 723.388 691.828 725.004 690.358C729.067 686.025 731.842 681.336 734.477 676.06L736.231 672.664C741.363 660.972 741.441 651.467 741.54 639.463V639.46C741.569 635.967 741.599 632.262 741.757 628.23H650.765L651.493 627.393L650.765 627.034L652.802 625.067L655.466 622.475L657.462 620.539C658.051 619.867 658.509 619.348 658.969 618.831C659.448 618.292 659.929 617.755 660.562 617.047L660.673 616.923L660.674 616.921C660.817 616.757 660.959 616.593 661.101 616.428C661.323 616.171 661.544 615.913 661.764 615.656C662.075 615.177 662.439 614.603 662.897 613.88L663 614.186C685.106 587.572 693.171 559.659 695.654 525.394H741.757C741.684 471.236 741.595 417.077 741.479 362.918L741.43 339.874C741.387 319.264 741.357 298.654 741.332 278.045C741.305 256.894 741.265 235.743 741.212 214.593C741.18 201.544 741.159 188.495 741.151 175.446C741.145 166.496 741.125 157.545 741.095 148.594C741.078 143.432 741.067 138.27 741.071 133.107C741.075 128.375 741.063 123.643 741.037 118.911C741.031 117.205 741.03 115.499 741.037 113.793C741.079 101.471 740.279 89.559 733.34 78.9283L731.563 76.1351C731.035 75.3899 730.509 74.6703 729.98 73.9731C729.109 73.0801 728.551 72.385 728.174 71.6936C725.973 69.0428 723.651 66.7101 720.925 64.4927L716.279 61.4402L716.516 61.2069L713.819 59.2683C710.336 57.2254 706.822 55.7034 703.267 54.5727L698.37 53.2563C689.184 51.2119 679.693 51.3351 669.705 51.4647L668.825 51.476C664.743 51.5249 660.662 51.538 656.58 51.5414C644.984 51.5553 633.39 51.6183 621.795 51.7385C614.673 51.8098 607.553 51.8285 600.431 51.8148C597.732 51.8202 595.034 51.8454 592.337 51.8916C576.575 52.1568 571.31 52.2453 567.015 50.2478C564.861 49.2459 562.951 47.7193 560.084 45.4269C558.314 43.6352 556.584 41.8039 554.92 39.9167C539.383 26.5568 517.108 22.9675 497.177 24.0869C478.455 25.9149 463.206 33.9101 449.667 45.8659C448.823 46.8466 447.901 47.7206 446.837 48.4444C446.058 49.1762 445.285 49.9211 444.516 50.6785C442.684 50.7949 440.847 50.8277 439.011 50.8276L435.383 50.8363L431.349 50.8275L427.101 50.8326C423.192 50.8362 419.283 50.8345 415.374 50.8307C411.491 50.8282 407.608 50.8316 403.725 50.8351L402.745 50.8359C396.39 50.8408 390.035 50.8435 383.68 50.8436C371.179 50.8438 358.678 50.8587 346.177 50.879L331.328 50.9025C320.072 50.9204 308.817 50.9367 297.562 50.9512L294.443 50.9552C277.794 50.9762 261.145 50.9796 244.496 50.9776C227.399 50.9761 210.302 50.9974 193.204 51.0387C182.663 51.0633 172.122 51.0698 161.581 51.0526C154.344 51.0425 147.108 51.0542 139.872 51.0829C135.702 51.0987 131.533 51.1051 127.364 51.0851C104.056 50.9996 86.3803 52.129 68.4628 68.3813C57.8396 79.4002 52.3723 93.637 52.3056 108.708L52.2843 111.293C52.2639 114.122 52.2602 116.951 52.2566 119.78C52.2453 121.82 52.233 123.859 52.2197 125.899C52.1867 131.415 52.1682 136.931 52.1525 142.447C52.1353 147.658 52.1072 152.869 52.079 158.08L52.0699 159.764C52.0132 170.685 51.9686 181.607 51.9284 192.528C51.882 204.966 51.822 217.403 51.761 229.841C51.6357 255.417 51.5274 280.994 51.4303 306.571L53.7841 306.495C57.3214 306.395 60.8584 306.333 64.3966 306.272L68.1003 306.15C73.7285 306.077 75.8843 306.049 77.8114 306.699C79.0079 307.103 80.1162 307.768 81.9126 308.845C85.4657 312.763 86.4951 314.873 86.993 320.172C86.5725 324.98 85.6176 327.639 82.9742 331.682C81.4414 332.89 80.2959 333.793 79.0289 334.468C75.2814 336.465 70.4705 336.465 51.4303 336.465V416.58H82.9742C89.5783 422.276 91.6888 424.096 92.6499 426.396C93.1013 427.477 93.2991 428.663 93.5899 430.406C92.9772 436.736 90.0395 440.631 85.6281 445.129C82.0914 446.922 79.018 446.741 75.2063 446.517L75.1879 446.516L75.1581 446.514C74.9352 446.501 74.7098 446.487 74.4816 446.474V448.866L74.49 448.867L74.4923 448.867C77.7086 449.175 80.5003 449.443 82.9741 449.66V448.866L85.9234 448.832C90.3248 448.768 94.7246 448.668 99.1252 448.567L103.767 448.516L107.716 448.412C110.515 447.701 113.735 446.768 117.754 445.578L118.021 445.233L119.371 442.887L119.892 444.943L120.93 444.634C123.803 441.521 125.841 437.982 127.811 434.264C129.961 430.631 132.908 427.809 135.946 424.9L136.205 424.652L138.046 422.858C154.806 406.909 175.842 396.629 198.231 391.874V391.469C207.853 389.762 217.204 388.826 226.969 388.779L229.829 388.746C231.962 388.757 233.588 388.783 235.104 389.057C256.374 390.384 275.943 396.296 294.076 408.21C293.681 409.071 293.269 409.881 292.834 410.657L291.649 412.993L291.481 412.86C290.364 414.524 289.101 416.078 287.631 417.702L285.522 420.051C283.849 421.825 282.134 423.559 280.389 425.264C277.816 427.818 275.375 430.406 272.944 433.088C271.42 434.71 269.896 436.333 268.371 437.955L266.131 440.496C262.704 444.066 261.381 445.444 259.765 446.085C258.749 446.489 257.618 446.6 255.774 446.782C250.936 446.341 246.373 445.205 241.68 444.008C223.039 439.724 204.41 444.09 188.183 453.511C172.33 463.656 161.63 478.952 156.323 496.553C156.192 497.187 156.019 497.962 155.774 499.061L155.769 499.083L155.768 499.088L155.565 499.221C155.381 499.907 155.206 500.596 155.039 501.288C152.941 512.477 153.35 524.138 156.162 535.177C157.257 537.204 157.769 538.959 158.346 541.761L158.615 543.038C160.162 547.203 162.071 551.234 164.336 555.064C175.974 571.375 191.06 583.184 210.955 587.999C220.739 589.677 230.921 589.301 240.888 588.934H240.889L240.896 588.933L240.903 588.933L240.91 588.933L240.917 588.933C242.466 588.876 244.01 588.819 245.547 588.77C243.852 591.045 242.153 593.291 240.407 595.495C240.017 596.213 239.686 596.669 239.274 597.035C239.181 597.118 239.084 597.196 238.981 597.272C237.085 599.602 235.121 601.88 233.035 604.09C228.104 609.403 223.472 614.902 218.908 620.523L216.429 623.447L214.528 625.971C210.521 629.037 206.841 629.035 202.109 629.031L201.621 629.031C201.315 629.031 201.005 629.031 200.69 629.033L197.461 629.081C195.205 629.105 192.948 629.117 190.691 629.116C187.275 629.126 183.867 629.213 180.452 629.304C174.405 629.379 169.21 629.358 164.334 628.209L161.834 628.229L160.694 627.106C157.474 625.896 154.339 624.047 151.122 621.236L148.488 618.664C146.42 616.914 144.348 615.17 142.271 613.432C125.364 597.979 108.705 577.113 104.812 554.093H0.474684L0.474653 514.633L98.7461 514.633V496.696L99.9594 489.522C98.0891 487.678 94.8159 487.85 91.9102 488.002C91.0938 488.045 90.3065 488.086 89.5874 488.08L86.6823 488.045C83.4985 488.007 80.3147 487.977 77.1308 487.948C75.7985 487.933 74.4662 487.918 73.1339 487.902L70.5262 487.872C64.7201 487.806 58.914 487.747 53.1079 487.69C47.6173 487.634 42.1263 487.573 36.6357 487.511H36.6327L35.3479 487.497C23.7235 487.368 12.0991 487.247 0.474684 487.13C0.391279 436.902 0.327192 386.673 0.288824 336.445C0.284269 330.508 0.279562 324.571 0.274756 318.634L0.271856 315.052C0.256041 295.944 0.227362 276.835 0.193869 257.727C0.159773 238.103 0.139608 218.479 0.132238 198.855C0.127256 186.757 0.111555 174.66 0.0819073 162.562C0.0625897 154.253 0.0568677 145.944 0.061575 137.635C0.0638943 132.85 0.060484 128.065 0.040823 123.279C-0.143282 76.0571 -0.143282 76.057 10.1805 55.4615L11.4506 52.6963C11.8095 51.9787 12.1855 51.2742 12.5771 50.5818C12.8243 50.1154 13.0854 49.6367 13.3577 49.1373L13.3585 49.1357C13.5091 48.8596 13.6631 48.5771 13.8202 48.2869L13.8814 48.4077C18.0632 41.8133 23.6275 36.2809 29.2112 30.7294L29.5921 30.3506L32.5589 27.3799C46.6652 14.0732 63.9799 5.85811 82.5521 2.32362C84.2149 1.67237 85.7314 1.48873 87.5347 1.49152C93.1671 0.680152 98.897 0.286506 104.672 0.299498ZM97.1907 450.193C94.782 450.34 92.2492 450.307 89.1948 450.13C91.0871 450.149 92.9794 450.165 94.8718 450.178L97.1907 450.193Z" fill="#FF865B"/>
<path fill-rule="evenodd" clip-rule="evenodd" d="M576.758 392.665L580.582 393.548C598.601 398.273 615.218 407.852 628.927 420.168L631.727 422.419C649.042 436.556 660.62 456.83 667.75 477.564L668.883 480.815C677.908 508.395 674.568 543.484 662.897 569.638L661.271 573.29C652.55 591.624 637.895 608.666 621.647 621.055L619.463 622.857C616.983 624.632 614.481 625.915 611.941 626.839V627.034C610.789 627.412 609.677 627.676 608.581 627.855C602.643 629.314 596.468 629.164 589.868 629.003C588.779 628.977 587.68 628.95 586.568 628.93C584.355 628.917 582.142 628.907 579.929 628.9C574.14 628.872 568.353 628.802 562.565 628.722C557.128 628.655 551.691 628.622 546.254 628.589L544.802 628.58C533.211 628.503 521.621 628.381 510.03 628.23L510.641 630.225C514.156 641.72 517.669 653.212 520.949 664.775C523.211 672.67 525.6 680.508 528.153 688.317C531.055 697.202 533.665 706.15 536.19 715.146C539.127 725.596 542.173 735.978 545.546 746.3C546.592 749.507 547.626 752.718 548.659 755.928L548.661 755.935L548.677 755.982C551.112 763.537 552.332 767.324 553.577 771.102C554.825 774.89 556.098 778.669 558.645 786.229L559.84 789.703C560.586 791.863 561.339 794.021 562.099 796.176L563.109 799.097L564 801.632C564.214 802.443 564.354 802.977 564.447 803.519C564.626 804.564 564.626 805.64 564.626 808.789L566.934 808.757C568.047 808.742 569.161 808.728 570.275 808.714C577.324 808.602 584.373 808.52 591.423 808.461C594.324 808.431 597.225 808.39 600.125 808.338C604.296 808.266 608.466 808.232 612.638 808.205L616.564 808.112C622.954 808.109 625.278 808.109 627.1 809.064C627.504 809.275 627.883 809.533 628.276 809.849C628.854 810.163 629.496 810.538 630.265 810.986C634.942 816.242 635.522 819.421 635.381 826.193C634.829 830.35 633.285 832.341 630.14 835.096C625.976 837.696 622.579 837.79 617.7 837.798L612.945 837.824L607.711 837.815C605.86 837.821 604.009 837.827 602.159 837.834C597.066 837.851 591.973 837.853 586.88 837.853C582.071 837.854 577.263 837.867 572.454 837.879L570.41 837.884C558.403 837.911 546.397 837.921 534.39 837.927C526.896 837.931 519.401 837.938 511.907 837.947C491.165 837.971 470.422 837.99 449.68 837.994L429.478 837.997C407.791 838.001 386.104 838.034 364.417 838.078C342.16 838.124 319.904 838.147 297.648 838.147C285.147 838.148 272.647 838.158 260.147 838.193C249.505 838.222 238.864 838.231 228.222 838.213C222.791 838.204 217.36 838.205 211.928 838.232C206.958 838.257 201.988 838.254 197.017 838.229C195.217 838.225 193.418 838.231 191.619 838.248C181.109 838.341 177.9 838.369 175.319 837.111C174.184 836.558 173.17 835.756 171.711 834.602C170.93 833.672 170.292 832.789 169.77 831.926C168.778 830.798 168.312 830.084 168.093 829.3C167.926 828.698 167.903 828.056 167.901 827.154C167.434 824.849 167.447 822.366 167.464 819.244L167.464 819.201C167.645 817.859 167.751 817.073 168.018 816.347C168.395 815.322 169.094 814.415 170.781 812.228L170.781 812.227C170.838 812.187 170.894 812.148 170.95 812.109L171.067 812.027L171.085 812.003C172.18 811.236 172.859 810.76 173.496 810.482C176.177 808.979 178.306 808.612 182.237 808.544L185.916 808.471L189.899 808.411L193.969 808.336C198.271 808.257 202.573 808.187 206.875 808.117C209.786 808.065 212.698 808.013 215.609 807.96C222.757 807.832 229.906 807.71 237.054 807.593C244.202 785.686 251.217 763.741 258.155 741.768L258.311 741.274C259.642 736.66 261.052 732.067 262.532 727.478L262.657 727.518C266.213 716.233 269.745 704.94 273.257 693.641L273.451 692.801L273.497 692.869C275.147 687.559 276.792 682.247 278.434 676.935C279.735 672.727 281.038 668.52 282.348 664.314C282.518 663.6 282.787 662.803 283.157 661.711L283.159 661.715C284.196 658.394 285.237 655.075 286.285 651.757L287.646 647.443C289.389 642.068 291.202 636.715 293.015 631.363C293.25 630.67 293.485 629.976 293.72 629.282L294.076 628.23H244.333C247.399 623.193 250.154 619.73 254.191 615.525L254.196 615.519L254.351 615.357C255.549 614.104 256.612 612.992 257.568 611.987C259.005 609.721 260.667 607.645 262.532 605.51H263.554C263.964 605.041 264.359 604.58 264.749 604.114C266.374 602.177 267.916 600.171 270.071 597.268L269.811 597.14L272.594 593.848C272.931 593.39 273.281 592.913 273.646 592.416L274.067 591.843L274.07 591.839L274.071 591.837L274.074 591.834L274.075 591.831C277.629 586.629 278.982 584.65 280.844 583.49C281.137 583.307 281.443 583.145 281.772 582.994L281.943 582.791L282.08 582.858C282.972 582.48 284.043 582.157 285.476 581.724L285.48 581.723L285.481 581.722C289.708 581.373 293.789 581.384 298.028 581.53L302.667 581.535C306.716 581.546 310.758 581.606 314.805 581.694C320.508 581.81 326.212 581.853 331.916 581.877C334.947 581.894 337.977 581.938 341.006 582.013C348.78 582.097 353.748 582.123 359.59 576.812C362.727 572.737 362.548 568.632 362.017 563.659C359.071 558.821 356.514 556.885 351.097 555.288C347.317 554.949 343.554 554.966 339.76 554.983L336.326 554.97C333.87 554.962 331.414 554.959 328.958 554.96C325.067 554.961 321.175 554.946 317.283 554.926C306.22 554.87 295.157 554.841 284.093 554.833C277.321 554.827 270.549 554.798 263.777 554.755C261.201 554.743 258.625 554.74 256.05 554.747C252.44 554.755 248.832 554.734 245.223 554.708L242.023 554.737C231.549 554.598 223.91 550.536 216.429 543.331C214.5 540.61 213.096 537.956 211.576 534.961L210.06 532.121C209.766 531.107 209.524 530.09 209.333 529.072L209.15 528.982C209.133 528.547 209.118 528.112 209.103 527.677C208.304 522.026 209.073 516.353 211.344 510.957C214.505 505.921 219.56 501.73 224.922 499.088C227.752 499.04 230.584 499.036 233.414 499.088L233.732 501.19C234.657 506.26 235.962 509.804 238.378 513.042C238.736 513.326 239.093 513.611 239.45 513.897L240.087 514.408L242.476 516.3C243.285 517.137 243.742 517.609 244 518.172C244.102 518.396 244.173 518.635 244.223 518.917L244.307 518.986C249.316 521.207 254.143 521.144 259.451 521.074L260.106 521.065C260.519 521.06 260.935 521.056 261.354 521.053L265.445 521.066C268.373 521.074 271.302 521.074 274.231 521.066C278.866 521.055 283.501 521.067 288.136 521.086C299.648 521.128 311.159 521.137 322.671 521.134C332.399 521.131 342.127 521.148 351.855 521.192C356.421 521.205 360.987 521.19 365.553 521.175C366.762 521.18 367.971 521.184 369.181 521.19C370.773 521.196 372.365 521.204 373.957 521.211L377.802 521.176C385.013 521.246 389.315 521.777 394.774 526.59C395.181 527.813 395.386 528.43 395.478 529.064C395.571 529.709 395.545 530.372 395.494 531.71L395.473 534.724L395.38 537.95C395.611 558.578 402.345 580.814 415.081 597.514C415.866 598.549 416.249 599.053 416.435 599.621C416.612 600.161 416.612 600.758 416.612 601.923L448.156 600.727L447.024 599.291L446.942 599.531L446.942 599.53L446.932 599.516C445.862 598.034 445.029 596.879 444.38 595.936L442.09 593.03C433.742 582.061 426.975 569.525 422.815 556.349L422.678 556.484C422.61 556.077 422.544 555.67 422.479 555.263C422.12 554.08 421.781 552.893 421.465 551.701L420.45 548.389C411.882 516.351 418.834 480.936 435.051 452.503C440.462 443.492 448.768 429.959 459.075 426.147L464.723 437.964C466.872 442.466 469.018 446.97 471.145 451.482L472.256 453.836C472.968 455.346 473.676 456.857 474.383 458.369C476.214 462.271 478.175 466.043 480.306 469.792C482.859 475.661 482.143 479.244 479.818 485.108L478.562 488.102C471.912 503.976 470.519 524.648 476.971 540.834L477.017 540.939H477.273C478.156 542.622 479.01 544.319 479.851 546.021L481.301 548.88C481.49 549.526 481.636 550.024 481.735 550.441C490.621 566.29 502.822 577.719 520.949 585.182C539.495 591.88 560.873 590.374 578.677 582.299C585.745 578.916 591.007 575.432 596.167 569.64L596.169 569.638H598.596L599.591 567.526C601.015 564.867 602.611 562.717 604.51 560.37C606.368 557.965 608.003 555.533 609.436 553.065C609.851 552.208 610.281 551.355 610.728 550.505L610.779 550.629C616.212 540.234 618.239 529.16 618.311 516.725L618.387 513.498C618.502 493.871 608.419 476.391 595.293 462.188C590.464 457.714 584.957 454.422 579.184 451.258L575.706 449.347C571.429 447.46 567.4 446.681 562.806 445.802C558.168 444.736 554.535 443.703 551.076 440.299C549.209 437.243 547.766 434.242 546.427 430.93L545.276 428.473C544.502 426.819 543.756 425.151 543.034 423.475C541.08 419.047 538.991 414.685 536.9 410.32L536.57 409.63L535.286 406.942C534.15 404.544 533.582 403.346 532.986 402.161C532.39 400.976 531.766 399.805 530.518 397.464L530.517 397.461C530.129 396.594 529.881 396.039 529.723 395.46C529.442 394.434 529.442 393.33 529.442 390.274C545.266 387.219 561.259 388.757 576.758 392.665ZM418.39 659.841C415.57 655.837 412.497 652.606 408.39 649.904C395.943 643.479 383.259 648.418 374.39 657.841C369.196 664.269 369.778 671.937 370.39 679.841C372.275 685.496 375.66 690.38 380.203 694.216C387.088 697.727 393.599 699.86 401.39 698.841C409.279 696.489 415.308 691.308 419.39 684.216C422.531 677.277 422.663 669.659 420.265 662.466L418.39 659.841Z" fill="#FF865B"/>
<path fill-rule="evenodd" clip-rule="evenodd" d="M466.354 176.233C462.54 158.471 452.157 144.247 437.777 133.195C405.579 111.254 370.771 121.861 338.97 137.903C335.1 139.864 331.218 141.796 327.324 143.709C325.767 144.474 324.211 145.24 322.655 146.007C318.899 147.861 315.141 149.71 311.38 151.553C298.695 157.764 286.028 163.988 273.527 170.553C267.32 173.814 261.092 176.952 254.705 179.857C253.427 180.435 252.139 181.013 250.844 181.595L250.839 181.597C236.99 187.818 222.365 194.386 211.505 204.88L209.15 207.323C200.146 216.106 192.653 225.791 188.763 237.846L187.804 241.063L186.83 244.313L186.099 246.783C175.089 246.9 164.079 247.021 153.069 247.149L151.748 247.165C146.577 247.226 141.406 247.287 136.235 247.342C130.736 247.4 125.237 247.459 119.739 247.525C117.649 247.55 115.56 247.576 113.471 247.6C110.458 247.63 107.444 247.659 104.431 247.697L101.669 247.733L101.378 247.735C97.0444 247.769 93.2256 247.799 89.0403 249.174C84.7069 252.357 82.1973 254.202 81.1211 259.497C80.8784 266.523 81.6072 271.331 86.6138 276.677C88.0062 277.649 88.8897 278.266 89.863 278.658C91.5492 279.338 93.5067 279.344 98.8549 279.362L101.833 279.336C103.997 279.337 106.16 279.337 108.324 279.337C111.856 279.323 115.388 279.311 118.921 279.317C129.033 279.352 139.144 279.384 149.256 279.356C155.571 279.335 161.885 279.324 168.2 279.353C170.601 279.368 173.002 279.378 175.402 279.386L175.512 279.385H175.887C179.175 279.357 182.461 279.33 185.75 279.351L188.92 279.378C190.829 279.342 192.739 279.337 194.648 279.372C198.695 279.735 200.387 280.691 202.994 283.76C204.447 285.884 205.061 286.782 205.755 287.612C206.263 288.22 206.814 288.791 207.769 289.781L209.88 291.82L212.269 294.145C219.153 300.807 225.952 307.517 232.429 314.567C235.681 318.136 238.961 321.63 242.409 325.014C243.837 326.413 245.264 327.812 246.69 329.212L249.342 331.816C250.912 333.357 252.482 334.899 254.052 336.44L254.039 336.465L262.532 344.835L262.578 344.82C264.534 346.743 266.49 348.667 268.446 350.59C271.781 353.861 275.116 357.133 278.447 360.409L281.631 363.542C287.086 368.885 292.488 374.219 297.537 379.94C301.47 384.493 305.724 388.653 310.075 392.815C310.529 393.246 310.985 393.676 311.441 394.106C316.841 399.2 322.269 404.319 324.027 411.723C323.739 413.745 323.614 414.625 323.213 415.354C322.904 415.915 322.431 416.385 321.595 417.219C316.724 421.754 312.064 426.445 307.469 431.25L304.995 433.844L304.47 434.391C300.605 438.423 296.743 442.451 293.029 446.62L292.823 446.854L292.821 446.856L292.82 446.857C289.751 450.35 286.699 453.824 283.379 457.091C278.796 461.506 274.267 465.966 269.811 470.5C269.811 470.463 269.811 470.427 269.811 470.39L261.319 478.76L261.734 478.862L260.766 479.865L258.693 482.048C256.102 484.763 254.403 487.324 252.826 490.717L255.101 491.016C256.494 491.344 257.195 491.509 257.689 491.921C258.188 492.339 258.475 493.01 259.053 494.361L260.105 496.696C271.363 496.822 282.621 496.924 293.879 496.988L295.206 496.995C300.505 497.023 305.805 497.05 311.104 497.107C316.726 497.173 322.348 497.232 327.971 497.254C330.112 497.26 332.252 497.269 334.392 497.28C337.471 497.327 340.548 497.374 343.628 497.378L346.463 497.375C351.905 497.509 355.087 497.414 359.442 493.794L362.017 490.717L362.774 489.986C366.092 486.783 369.402 483.589 372.471 480.147C376.147 475.908 379.903 471.836 383.923 467.907C388.362 463.591 392.756 459.288 396.821 454.62C398.891 452.23 400.977 449.925 403.214 447.684C403.408 447.496 403.602 447.308 403.796 447.12L404.348 446.586C407.147 443.876 409.937 441.175 412.536 438.272C416.92 433.196 421.505 428.433 426.318 423.755C429.501 420.696 432.65 417.641 435.588 414.349C440.851 408.318 446.396 402.702 452.174 397.149L454.802 394.636L457.317 392.198C459.685 389.928 461.389 388.084 462.976 385.221L463.928 383.099H466.354C466.354 384.23 466.354 384.826 466.467 385.4C466.594 386.04 466.861 386.651 467.425 387.945L468.932 390.984L470.607 394.387C475.979 405.227 481.193 416.115 486.116 427.16C487.159 429.499 488.205 431.834 489.266 434.164L489.405 434.517L489.423 434.508C490.05 435.883 490.682 437.256 491.32 438.627C494.448 445.247 497.519 451.885 500.476 458.581C501.535 460.981 502.599 463.378 503.666 465.774L503.964 466.802L504.096 466.737C506.865 472.945 509.658 479.142 512.457 485.337L513.406 487.437L513.407 487.439C516.421 494.108 519.435 500.777 522.39 507.472C523.458 509.899 524.526 512.326 525.611 514.746C526.488 516.699 527.359 518.655 528.229 520.611C528.897 522.278 529.542 523.763 530.255 525.208L530.655 526.59L530.9 526.469C531.541 527.678 532.25 528.886 533.082 530.177C533.247 530.308 533.412 530.436 533.577 530.562C535.188 531.81 536.27 532.617 537.468 533.178C537.998 533.427 538.551 533.627 539.183 533.796C541.071 534.534 543.087 534.982 545.361 535.143C546.209 535.081 547.008 534.991 547.766 534.869L548.854 534.96L549.021 534.631C552.75 533.804 555.511 532.07 558.559 528.982C560.785 526.433 562.176 524.209 562.971 521.807H563.412C563.455 521.082 563.492 520.36 563.522 519.639C563.856 517.819 563.921 515.833 563.806 513.498C563.711 512.907 563.602 512.368 563.474 511.868C563.455 511.594 563.435 511.32 563.412 511.045C563.135 510.513 562.873 510.038 562.615 509.609C561.986 508.437 561.092 507.423 559.773 506.262L559.768 506.26C559.552 506.171 559.354 506.089 559.172 506.012L558.892 505.896C558.394 505.602 557.834 505.307 557.194 504.992L554.92 503.871L554.237 501.255C554.058 500.119 553.922 499.254 553.724 498.403C553.094 495.683 551.846 493.106 546.607 482.293C536.155 460.778 526.107 439.078 516.172 417.328C508.583 400.707 500.833 384.163 493.01 367.648L491.832 365.163C497.9 365.262 503.968 365.344 510.037 365.396C512.537 365.416 515.037 365.438 517.537 365.462C519.205 365.49 520.892 365.532 522.592 365.574C538.215 365.965 554.903 366.381 567.611 356.139C580.173 344.449 587.013 331.61 588.658 314.731L588.89 311.354C594.6 309.869 599.928 308.058 604.89 304.852C610.832 300.11 614.843 293.502 616.592 286.243H616.794L616.828 285.193C617.013 284.309 617.165 283.415 617.282 282.515C617.311 280.193 617.168 278.027 616.85 275.979C616.594 272.949 615.866 270.291 614.368 267.111H614.072C612.467 263.84 610.247 260.746 607.382 257.577C599.182 249.871 589.66 247.585 578.468 247.532L575.163 247.571C571.417 247.57 567.671 247.573 563.926 247.599C561.261 247.619 558.596 247.632 555.93 247.638C548.929 247.647 541.928 247.669 534.927 247.708C527.678 247.749 520.43 247.774 513.181 247.793C499.08 247.828 484.979 247.882 470.878 247.954L466.354 247.979C466.431 239.672 466.493 231.366 466.532 223.059L466.536 221.973C466.553 218.086 466.57 214.199 466.604 210.313C466.645 206.165 466.68 202.017 466.694 197.87L466.71 193.095C466.78 187.452 466.82 181.861 466.354 176.233ZM388 214.399C386.59 211.714 385.655 211.054 383 209.399C377.15 208.361 373.854 209.249 369.444 213.217C368.721 214.31 368.233 215.047 367.909 215.851C367.234 217.525 367.271 219.485 367.385 225.524L367.562 229.274C367.652 232.856 367.743 236.436 367.889 240.016L368 242.399C367.238 242.399 366.766 242.399 366.306 242.472C365.558 242.59 364.841 242.9 362.961 243.712L359.375 245.399C357.248 246.396 355.123 247.395 353 248.399V250.399C352.272 250.399 351.78 250.399 351.297 250.465C350.285 250.601 349.311 251.024 346.302 252.33L346.301 252.331L344.312 253.212C341.177 254.591 339.013 255.542 336.859 256.518C332.061 258.693 327.318 260.988 312.005 268.397L312 268.399C313.217 270.995 314.322 272.776 316.215 274.993C317.613 276.486 319.012 277.979 320.405 279.476L321.918 281.102C324.408 283.763 326.883 286.435 329.347 289.119L330.75 290.649C333.106 293.215 335.459 295.782 337.754 298.403L337.756 298.406L337.767 298.418C339.258 300.148 340.281 301.336 341.32 302.51C343.587 305.072 345.926 307.571 353.357 315.506L353.359 315.509C354.211 316.418 355.063 317.326 355.915 318.235L355.947 318.269L355.948 318.269C360.96 323.611 365.976 328.957 370.809 334.458C374.242 338.439 377.735 342.365 381.278 346.249L383.188 348.337L385.027 350.385L386.793 352.302C387.621 353.212 388.015 353.644 388.437 354.047C388.82 354.411 389.226 354.751 390 355.399C392.458 356.415 393.729 356.458 396.34 355.89L398.938 354.993L401.873 353.998L405 352.899C407.158 352.155 409.315 351.41 411.473 350.665C414.663 349.55 417.854 348.447 421.066 347.393C422.974 346.777 424.879 346.155 426.783 345.526L429.438 344.649C432.431 343.705 435.125 342.699 438 341.399C439.059 339.044 439.141 337.856 438.379 335.385L437.348 333.29L436.244 331.005L435.062 328.649C434.304 327.092 433.545 325.534 432.785 323.977L431 320.399C439.956 320.42 448.913 320.437 457.869 320.448L458.896 320.449C463.119 320.454 467.341 320.459 471.563 320.468C476.037 320.479 480.51 320.489 484.983 320.493C486.683 320.494 488.382 320.495 490.082 320.497C492.533 320.505 494.984 320.513 497.435 320.513L499.683 320.513C506.184 320.546 510.564 319.489 516.062 315.981C518.014 314.388 519.243 313.385 520.101 312.129C521.559 309.995 521.949 307.13 523 299.399C508.984 299.386 494.969 299.349 480.954 299.278C474.134 299.242 467.314 299.21 460.494 299.205C454.509 299.202 448.524 299.188 442.539 299.152C439.997 299.135 437.456 299.119 434.914 299.106C431.267 299.113 427.621 299.119 423.974 299.091L420.6 299.059C411.589 299.134 404.119 297.877 397.119 291.754C390.116 284.525 388.551 275.671 388.523 265.942C388.545 263.965 388.566 261.987 388.563 260.01C388.537 255.035 388.541 250.061 388.562 245.087C388.585 240.783 388.604 236.479 388.583 232.175C388.58 231.538 388.576 230.9 388.573 230.263C388.571 229.751 388.569 229.238 388.568 228.726L388.566 228.099L388.576 227.394C388.633 223.026 388.69 218.73 388 214.399Z" fill="#FF865B"/>
<path d="M0.474661 581.595H89.0403L101.173 603.119C107.072 610.892 113.139 618.203 119.479 625.553C119.537 625.567 119.594 625.581 119.652 625.595L119.758 625.621L119.859 625.647C120.099 625.707 120.341 625.771 120.584 625.838L121.797 628.23H51.4302C51.7896 645.974 51.9666 654.713 54.2407 662.867C56.4477 670.781 60.6298 678.143 68.8704 692.651C79.267 702.044 92.0147 707.236 106.17 707.339L109.876 707.374L113.901 707.395L118.171 707.431C122.825 707.469 127.479 707.498 132.134 707.528C135.362 707.553 138.59 707.578 141.818 707.603C149.445 707.663 157.071 707.717 164.698 707.768C173.383 707.827 182.067 707.893 190.752 707.959C208.613 708.095 226.473 708.223 244.333 708.345L244.333 708.347L244.166 709.541H244.333C244.148 710.486 243.958 711.43 243.766 712.374C243.306 715.575 243.047 717.054 242.643 718.493C242.381 719.424 242.059 720.338 241.582 721.69L241.58 721.695L240.671 724.318L239.708 727.029C239.049 728.923 238.392 730.818 237.736 732.714L236.76 735.531C235.383 739.588 234.124 743.68 232.887 747.78C232.788 748.128 232.701 748.43 232.619 748.7C232.571 748.856 232.524 749.001 232.478 749.14C232.327 749.641 232.177 750.142 232.026 750.643L232.003 750.722L232.002 750.723L231.912 751.024C231.335 752.748 231.118 753.395 230.741 753.929C230.515 754.251 230.23 754.531 229.775 754.98C227.946 755.102 226.111 755.142 224.278 755.148L220.677 755.169L216.692 755.173L212.519 755.191C207.931 755.208 203.344 755.216 198.757 755.223L189.191 755.244C183.341 755.255 177.492 755.262 171.643 755.266C163.074 755.271 154.507 755.292 145.938 755.327C138.493 755.356 131.049 755.365 123.604 755.367C120.454 755.37 117.303 755.38 114.153 755.396C98.2258 755.47 83.6331 754.729 70.0029 751.303C64.011 750.616 59.3576 749.155 53.8567 746.61V745.679C45.3506 741.783 37.1968 736.392 29.2888 728.972C7.55405 706.439 -0.187815 681.406 0.119223 650.958C0.126028 648.945 0.131201 646.931 0.134825 644.918C0.148573 639.677 0.184195 634.436 0.224737 629.196C0.262442 623.805 0.279898 618.413 0.297346 613.022L0.306463 610.237C0.335959 602.196 0.39015 594.155 0.444349 586.114L0.444372 586.112L0.474661 581.595Z" fill="#FF865B"/>
<path d="M541.347 60.5434C549.715 67.5327 556.978 75.1847 560.986 85.3554L562.081 88.1066C565.996 99.2577 565.599 110.561 562.417 121.474L562.199 123.62C562.095 123.466 561.995 123.315 561.9 123.166C560.935 126.194 559.76 129.189 558.408 132.139C550.271 147.074 537.123 156.775 520.949 161.884C518.953 162.321 517.93 162.545 516.896 162.695C515.81 162.852 514.712 162.926 512.459 163.079L512.457 163.08L509.253 163.309C500.384 163.663 492.072 162.197 484.383 159.071C482.858 158.502 481.315 157.848 479.7 157.101L479.794 157.045L479.86 157.005C474.976 154.522 470.367 151.338 466.051 147.497C463.441 144.808 461.128 141.975 459.114 139.01L459.075 139.165L458.63 138.287C454.229 131.606 451.322 124.275 449.914 116.445H449.369C449.34 115.115 449.328 113.784 449.332 112.454C449.049 109.953 448.914 107.406 448.925 104.817C449.318 89.3342 455.455 77.0815 466.127 65.9991C486.505 46.9031 518.202 43.9566 541.347 60.5434Z" fill="#FF865B"/>
<path d="M110.468 336.117L114.738 336.071L119.357 336.063L124.103 336.039C127.421 336.025 130.738 336.02 134.056 336.022C138.295 336.022 142.533 335.989 146.771 335.948C150.371 335.919 153.971 335.917 157.571 335.914L158.938 335.914L163.534 335.861C171.535 335.903 174.65 335.919 177.189 337.137C178.807 337.913 180.192 339.177 182.459 341.248C184.532 343.941 185.116 346.636 185.148 349.589L185.189 350.141L185.187 350.157C185.165 350.471 185.144 350.762 185.124 351.033C185.081 352.114 184.987 353.233 184.885 354.401C183.118 359.335 180.979 362.538 176.451 365.37C171.729 367.249 166.544 367.143 161.47 367.039C160.525 367.02 159.583 367 158.649 366.994L154.163 367.008C151.038 367.011 147.914 367.002 144.789 366.982C140.012 366.957 135.238 366.982 130.461 367.013C127.421 367.009 124.382 367.003 121.342 366.994L117.022 367.023C107.593 366.917 103.442 365.741 96.4713 359.558C94.2795 355.117 94.3246 350.864 95.1064 346.031C98.9593 338.829 102.244 336.178 110.468 336.117Z" fill="#FF865B"/>
</svg>
